<svg xmlns="http://www.w3.org/2000/svg" width="40.49" height="51.86" viewBox="0 0 40.49 51.86"><defs><style>.cls-1{fill:#c20430;}</style></defs><title>icon_admissions</title><g id="Layer_2" data-name="Layer 2"><g id="Layer_1-2" data-name="Layer 1"><path class="cls-1" d="M36.48,4.06H29.94V4a1.57,1.57,0,0,0-1.57-1.57H24.26V2.38A2.39,2.39,0,0,0,21.87,0H18.62a2.39,2.39,0,0,0-2.38,2.38v.06H12.13A1.57,1.57,0,0,0,10.55,4v0H4a4,4,0,0,0-4,4V47.85a4,4,0,0,0,4,4H36.48a4,4,0,0,0,4-4V8.07A4,4,0,0,0,36.48,4.06Zm-7.3,4.77h6.49a0,0,0,0,1,0,.05V47a0,0,0,0,1,0,.05H4.82A0,0,0,0,1,4.77,47V8.88a0,0,0,0,1,.05-.05h6.52a4,4,0,0,0,3.22,1.62H25.93a4,4,0,0,0,3.22-1.62ZM17.76,2.38a.87.87,0,0,1,.86-.86h3.25a.86.86,0,0,1,.86.86v.06h-5ZM12.08,4a0,0,0,0,1,.05,0H28.37a.05.05,0,0,1,.05,0v.8h0V6.44a2.49,2.49,0,0,1-2.49,2.49H14.56a2.48,2.48,0,0,1-2.48-2.49ZM39,47.85a2.49,2.49,0,0,1-2.49,2.49H4a2.5,2.5,0,0,1-2.49-2.49V8.07A2.5,2.5,0,0,1,4,5.58h6.54v.86a4.14,4.14,0,0,0,.1.87H4.82A1.57,1.57,0,0,0,3.25,8.88V47a1.57,1.57,0,0,0,1.57,1.57H35.67A1.57,1.57,0,0,0,37.25,47V8.88a1.57,1.57,0,0,0-1.58-1.57H29.84a3.57,3.57,0,0,0,.1-.87V5.58h6.54A2.49,2.49,0,0,1,39,8.07Z"/><path class="cls-1" d="M9,21.82h6.29a.87.87,0,0,0,.87-.86v-6.3a.87.87,0,0,0-.87-.86H9a.87.87,0,0,0-.86.86V21A.87.87,0,0,0,9,21.82Zm.66-6.5h5v5h-5Z"/><path class="cls-1" d="M15.27,34.91H9a.87.87,0,0,0-.86.86v6.3a.87.87,0,0,0,.86.86h6.29a.87.87,0,0,0,.87-.86v-6.3A.87.87,0,0,0,15.27,34.91Zm-.66,6.5h-5v-5h5Z"/><path class="cls-1" d="M16.46,24.58l-.55.55a1.56,1.56,0,0,0-1.35-.77H9.69a1.57,1.57,0,0,0-1.57,1.57V30.8a1.57,1.57,0,0,0,1.57,1.57h4.87a1.57,1.57,0,0,0,1.58-1.57V30a.77.77,0,0,0-1.53,0v.81a0,0,0,0,1,0,.05H9.69a0,0,0,0,1,0-.05V25.93a0,0,0,0,1,0-.05h4.87a0,0,0,0,1,0,.05v.5L12.94,28.1,11.85,27a.76.76,0,0,0-1.07,1.07l1.62,1.63a.79.79,0,0,0,.54.22.81.81,0,0,0,.54-.22l2.43-2.44h0l1.63-1.62a.78.78,0,0,0,0-1.08A.76.76,0,0,0,16.46,24.58Z"/><path class="cls-1" d="M18.62,16.14h2.44a.77.77,0,0,0,0-1.53H18.62a.77.77,0,0,0,0,1.53Z"/><path class="cls-1" d="M17.86,18.62a.76.76,0,0,0,.76.76H30.8a.76.76,0,1,0,0-1.52H18.62A.76.76,0,0,0,17.86,18.62Z"/><path class="cls-1" d="M18.62,27.5h8.12a.76.76,0,0,0,0-1.52H18.62a.76.76,0,1,0,0,1.52Z"/><path class="cls-1" d="M30.8,29.23H18.62a.76.76,0,1,0,0,1.52H30.8a.76.76,0,0,0,0-1.52Z"/><path class="cls-1" d="M18.62,38.06h3.25a.76.76,0,1,0,0-1.52H18.62a.76.76,0,0,0,0,1.52Z"/><path class="cls-1" d="M30.8,39.78H18.62a.76.76,0,0,0-.76.76.77.77,0,0,0,.76.77H30.8a.77.77,0,0,0,.76-.77A.76.76,0,0,0,30.8,39.78Z"/></g></g></svg>