<?xml version="1.0" encoding="utf-8"?>
<!-- Generator: Adobe Illustrator 18.0.0, SVG Export Plug-In . SVG Version: 6.00 Build 0)  -->
<!DOCTYPE svg PUBLIC "-//W3C//DTD SVG 1.1//EN" "http://www.w3.org/Graphics/SVG/1.1/DTD/svg11.dtd">
<svg version="1.1" id="Layer_1" xmlns="http://www.w3.org/2000/svg" xmlns:xlink="http://www.w3.org/1999/xlink" x="0px" y="0px"
	 viewBox="0 0 288 288" enable-background="new 0 0 288 288" xml:space="preserve">
<rect x="325.3" y="-0.6" fill="#231F20" width="288" height="288.6"/>
<rect x="19.2" y="73.7" fill="none" stroke="#BE311A" stroke-width="2.1044" width="107.3" height="113.6"/>
<g>
	<path fill="#BE311A" d="M151.3,104.2l-0.5,3h-13.3l4.6-24.8h4.5l-4,21.7H151.3z"/>
	<path fill="#BE311A" d="M160.3,89.5l-3.3,17.7h-4.2l3.3-17.7H160.3z M161.7,83.8c0,0.8-0.3,1.5-0.8,2.1c-0.5,0.6-1.2,0.9-2,0.9
		c-0.6,0-1.2-0.2-1.5-0.6c-0.4-0.4-0.6-0.9-0.6-1.6c0-0.8,0.3-1.5,0.8-2.1s1.2-0.8,2-0.8c0.6,0,1.1,0.2,1.5,0.6
		C161.5,82.6,161.7,83.1,161.7,83.8z"/>
	<path fill="#BE311A" d="M180.3,92.7c0,0.6-0.1,1.5-0.4,2.9l-2.2,11.6h-4.2l2-10.6c0.2-1.3,0.4-2.1,0.4-2.4c0-1.3-0.6-1.9-1.9-1.9
		c-1.3,0-2.6,0.8-3.8,2.3c-1.2,1.5-2,3.5-2.5,6l-1.3,6.7h-4.1l3.3-17.7h4.2l-0.8,4.1c2.2-3,4.7-4.5,7.4-4.5c1.2,0,2.2,0.3,3,1
		C180,90.7,180.3,91.6,180.3,92.7z"/>
	<path fill="#BE311A" d="M198.1,90.5l-1.6,2.3c-1-0.6-2-1-2.9-1c-1.7,0-3.2,0.8-4.5,2.3c-1.2,1.5-1.9,3.4-1.9,5.5
		c0,1.6,0.3,2.8,1,3.7c0.7,0.9,1.6,1.3,2.7,1.3c1,0,2.3-0.4,3.7-1.2l1.1,2.3c-2.2,1.2-4.4,1.8-6.4,1.8c-2,0-3.7-0.7-4.9-2
		c-1.2-1.3-1.8-3.1-1.8-5.4c0-3,1.1-5.6,3.2-7.8c2.1-2.2,4.6-3.3,7.5-3.3C195.2,89.1,196.8,89.6,198.1,90.5z"/>
	<path fill="#BE311A" d="M215.6,97.1c0,2.9-0.9,5.4-2.8,7.5c-1.9,2.1-4.2,3.1-6.8,3.1c-2.2,0-4-0.8-5.5-2.3s-2.1-3.5-2.1-5.8
		c0-2.9,1-5.3,3-7.4c2-2,4.3-3.1,7.1-3.1c2.1,0,3.8,0.7,5.2,2.2C215,92.9,215.6,94.8,215.6,97.1z M211.2,96.6c0-3.3-1.1-5-3.3-5
		c-1.4,0-2.6,0.8-3.6,2.5c-1,1.6-1.5,3.6-1.5,5.8c0,3.5,1.1,5.3,3.4,5.3c1.1,0,2.1-0.5,3-1.6C210.5,101.8,211.2,99.5,211.2,96.6z"/>
	<path fill="#BE311A" d="M226.8,81.3l-4.8,26h-4.2l4.8-26H226.8z"/>
	<path fill="#BE311A" d="M245.3,92.7c0,0.6-0.1,1.5-0.4,2.9l-2.2,11.6h-4.2l2-10.6c0.2-1.3,0.4-2.1,0.4-2.4c0-1.3-0.7-1.9-1.9-1.9
		c-1.3,0-2.6,0.8-3.8,2.3c-1.2,1.5-2,3.5-2.5,6l-1.3,6.7h-4.1l3.3-17.7h4.2l-0.8,4.1c2.2-3,4.7-4.5,7.4-4.5c1.2,0,2.2,0.3,3,1
		C244.9,90.7,245.3,91.6,245.3,92.7z"/>
	<path fill="#BE311A" d="M158.1,119.3l-1.8,2.6c-1.5-0.7-2.9-1-4.3-1c-2.9,0-5.2,1-7,2.9c-1.8,1.9-2.7,4.4-2.7,7.3
		c0,2.5,0.7,4.6,2.1,6.1c1.4,1.5,3.3,2.3,5.6,2.3c1.3,0,2.7-0.3,4.2-0.8l1,3c-2,0.8-4,1.2-6.1,1.2c-3.1,0-5.8-0.9-7.9-2.8
		c-2.4-2.1-3.6-5.1-3.6-8.8c0-3.9,1.4-7.3,4.1-10c2.7-2.7,6.1-4.1,10-4.1C154.1,117.4,156.2,118.1,158.1,119.3z"/>
	<path fill="#BE311A" d="M175.5,124.9l-3.3,17.7h-4.2l0.7-4.1c-2.3,3-4.7,4.5-7.3,4.5c-1.2,0-2.2-0.3-2.9-1
		c-0.7-0.6-1.1-1.5-1.1-2.7c0-0.7,0.1-1.7,0.4-2.9l2.2-11.5h4.1l-2,10.6c-0.2,1.1-0.3,1.9-0.3,2.4c0,1.3,0.6,1.9,1.9,1.9
		c1.3,0,2.6-0.8,3.8-2.3c1.2-1.5,2-3.5,2.5-5.9l1.3-6.7H175.5z"/>
	<path fill="#BE311A" d="M186.4,116.6l-4.8,26h-4.2l4.8-26H186.4z"/>
	<path fill="#BE311A" d="M194.2,124.9l-3.3,17.7h-4.2l3.3-17.7H194.2z M195.5,119.2c0,0.8-0.3,1.5-0.8,2.1c-0.5,0.6-1.2,0.9-2,0.9
		c-0.6,0-1.2-0.2-1.5-0.6c-0.4-0.4-0.6-0.9-0.6-1.6c0-0.8,0.3-1.5,0.8-2.1c0.5-0.6,1.2-0.8,2-0.8c0.6,0,1.1,0.2,1.5,0.6
		C195.3,118,195.5,118.5,195.5,119.2z"/>
	<path fill="#BE311A" d="M214.2,128.1c0,0.6-0.1,1.5-0.4,2.9l-2.2,11.6h-4.2l2-10.6c0.2-1.3,0.4-2.1,0.4-2.4c0-1.3-0.6-1.9-1.9-1.9
		c-1.3,0-2.6,0.8-3.8,2.3c-1.2,1.5-2,3.5-2.5,6l-1.3,6.7h-4.1l3.3-17.7h4.2l-0.8,4.1c2.2-3,4.7-4.5,7.4-4.5c1.2,0,2.2,0.3,3,1
		C213.8,126.1,214.2,127,214.2,128.1z"/>
	<path fill="#BE311A" d="M235,124.9l-3.3,17.7h-4.2l0.6-3c-1.4,1.3-2.5,2.2-3.4,2.7c-0.9,0.5-1.8,0.7-2.9,0.7
		c-1.6,0-2.8-0.6-3.7-1.8c-0.9-1.2-1.4-2.9-1.4-5c0-3.1,1-5.9,2.9-8.2c1.9-2.3,4.1-3.5,6.7-3.5c1.8,0,3.2,0.8,4.2,2.4l0.4-2H235z
		 M229.7,130c0-0.8-0.3-1.5-0.8-2c-0.5-0.5-1.2-0.8-2.1-0.8c-1.6,0-2.9,0.9-4,2.7c-1.1,1.8-1.6,3.9-1.6,6.4c0,2.6,0.8,3.9,2.5,3.9
		c1.7,0,3.1-1.2,4.4-3.7C229.1,134.4,229.7,132.2,229.7,130z"/>
	<path fill="#BE311A" d="M250.9,125.8l-2.1,3.2c-0.6-0.2-1.2-0.4-1.7-0.4c-1.3,0-2.3,0.6-3.2,1.8c-0.7,1-1.2,2.6-1.6,4.7l-1.4,7.4
		h-4.2l3.3-17.7h4.2l-0.6,3.4l1.3-1.7c1.1-1.4,2.1-2.1,3.1-2.1C249.1,124.5,250,124.9,250.9,125.8z"/>
	<path fill="#BE311A" d="M267.3,125.5l-16.7,26l-3-1.6l6-9.1l-2.8-15.5l4.4-0.6c0.3,2.2,0.7,5.5,1.3,9.9c0,0.5,0.1,1.5,0.2,3
		c2.8-5.2,5.3-9.5,7.3-12.9L267.3,125.5z"/>
	<path fill="#BE311A" d="M146.5,153.2l-4.6,24.8h-4.5l4.6-24.8H146.5z"/>
	<path fill="#BE311A" d="M165.9,163.5c0,0.6-0.1,1.5-0.4,2.9l-2.2,11.6h-4.2l2-10.6c0.2-1.3,0.4-2.1,0.4-2.4c0-1.3-0.6-1.9-1.9-1.9
		c-1.3,0-2.6,0.8-3.8,2.3c-1.2,1.5-2,3.5-2.5,6L152,178h-4.1l3.3-17.7h4.2l-0.8,4.1c2.2-3,4.7-4.5,7.4-4.5c1.2,0,2.2,0.3,3,1
		C165.6,161.5,165.9,162.4,165.9,163.5z"/>
	<path fill="#BE311A" d="M180.6,161.4l-1.6,2.2c-0.9-0.7-1.9-1.1-2.7-1.1c-0.7,0-1.2,0.2-1.6,0.5c-0.4,0.4-0.6,0.8-0.6,1.4
		c0,0.5,0.3,1.1,0.8,1.9c0.5,0.5,0.9,1.1,1.4,1.6c1.1,1.3,1.9,2.3,2.3,3.1c0.4,0.8,0.6,1.5,0.6,2.3c0,1.5-0.6,2.7-1.9,3.7
		c-1.3,1-2.9,1.5-4.9,1.5c-1.9,0-3.7-0.5-5.3-1.5l1.3-2.7c1.3,1,2.6,1.5,3.8,1.5c0.8,0,1.5-0.2,2-0.6c0.5-0.4,0.7-1,0.7-1.7
		c0-0.5-0.1-1-0.4-1.5c-0.3-0.4-0.9-1.2-1.9-2.4c-1.1-1.2-1.8-2.2-2.2-2.8c-0.4-0.6-0.5-1.4-0.5-2.1c0-1.3,0.6-2.4,1.7-3.4
		c1.2-0.9,2.6-1.4,4.3-1.4C177.5,159.9,179.1,160.4,180.6,161.4z"/>
	<path fill="#BE311A" d="M194.1,160.3l-0.4,2.4h-4.2l-1.6,8.6c-0.3,1.4-0.4,2.3-0.4,2.7c0,1.1,0.5,1.7,1.6,1.7
		c0.6,0,1.4-0.2,2.4-0.5l0.2,2.3c-1.5,0.7-3,1-4.5,1c-2.7,0-4.1-1.1-4.1-3.4c0-0.3,0.2-1.5,0.5-3.4l1.6-8.9h-2.2l0.4-2.4h2.2
		l0.8-4.3l4.3-1.1l-1,5.3H194.1z"/>
	<path fill="#BE311A" d="M201.2,160.3L198,178h-4.2l3.3-17.7H201.2z M202.6,154.5c0,0.8-0.3,1.5-0.8,2.1c-0.5,0.6-1.2,0.9-2,0.9
		c-0.6,0-1.1-0.2-1.5-0.6c-0.4-0.4-0.6-0.9-0.6-1.6c0-0.8,0.3-1.5,0.8-2.1c0.5-0.6,1.2-0.8,2-0.8c0.6,0,1.1,0.2,1.5,0.6
		C202.4,153.4,202.6,153.9,202.6,154.5z"/>
	<path fill="#BE311A" d="M215.2,160.3l-0.4,2.4h-4.2l-1.6,8.6c-0.3,1.4-0.4,2.3-0.4,2.7c0,1.1,0.5,1.7,1.6,1.7
		c0.6,0,1.4-0.2,2.4-0.5l0.2,2.3c-1.5,0.7-3,1-4.5,1c-2.7,0-4.1-1.1-4.1-3.4c0-0.3,0.2-1.5,0.5-3.4l1.6-8.9h-2.2l0.4-2.4h2.2
		l0.8-4.3l4.3-1.1l-1,5.3H215.2z"/>
	<path fill="#BE311A" d="M233.4,160.3l-3.3,17.7h-4.2l0.7-4.1c-2.3,3-4.7,4.5-7.3,4.5c-1.2,0-2.2-0.3-2.9-1
		c-0.7-0.6-1.1-1.5-1.1-2.7c0-0.7,0.1-1.7,0.4-2.9l2.2-11.5h4.1l-2,10.6c-0.2,1.1-0.3,1.9-0.3,2.4c0,1.3,0.6,1.9,1.9,1.9
		c1.3,0,2.6-0.8,3.8-2.3c1.2-1.5,2-3.5,2.5-5.9l1.3-6.7H233.4z"/>
	<path fill="#BE311A" d="M247.3,160.3l-0.4,2.4h-4.2l-1.6,8.6c-0.3,1.4-0.4,2.3-0.4,2.7c0,1.1,0.5,1.7,1.6,1.7
		c0.6,0,1.4-0.2,2.4-0.5l0.2,2.3c-1.5,0.7-3,1-4.5,1c-2.7,0-4.1-1.1-4.1-3.4c0-0.3,0.2-1.5,0.5-3.4l1.6-8.9h-2.2l0.4-2.4h2.2
		l0.8-4.3l4.3-1.1l-1,5.3H247.3z"/>
	<path fill="#BE311A" d="M263.3,164.1c0,1.9-1,3.4-2.9,4.5c-1.9,1.2-4.5,1.8-7.6,1.8h-1.2v0.7c0,2.9,1.2,4.4,3.7,4.4
		c1.3,0,2.9-0.5,4.7-1.5l1.1,2.2c-2.7,1.5-5.1,2.2-7.4,2.2c-2.1,0-3.6-0.5-4.7-1.6c-1.2-1.3-1.9-3-1.9-5.2c0-3.1,1.1-5.8,3.4-8.2
		c2.2-2.4,4.8-3.5,7.8-3.5c1.5,0,2.8,0.4,3.7,1.2C262.8,161.8,263.3,162.8,263.3,164.1z M259.4,164.4c0-0.6-0.2-1.1-0.5-1.4
		c-0.4-0.4-0.8-0.5-1.4-0.5c-1.2,0-2.4,0.6-3.5,1.8c-0.9,0.9-1.6,2.2-2,3.9c1.5,0,2.3,0,2.4-0.1c1.5-0.1,2.7-0.5,3.6-1.1
		C259,166.1,259.4,165.3,259.4,164.4z"/>
</g>
<path fill="#BE311A" d="M123.5,77.3v106.5H22.9V77.3H123.5z M82.8,174.9l-2.6-45h-2.1l2.5,43h-7.1l2.5-43H74l-2.6,45H82.8z
	 M90.5,107.5c0-4.2-1.2-8.8-3-11.8c-1.8-3.1-3.8-5.1-6.6-6.3c-2.4-1-6.8-0.8-6.8-0.8v-1.5c0,0-0.8-0.1-3.4,1.1
	c-7.5,3.5-10.1,11.4-10.1,19.5c0,11.7,6.2,17.2,10.1,19.2c2.9,1.4,3.4,1.2,3.4,1.2l0-1.4c0,0,4.8,0.3,7.6-1.2
	c2.8-1.5,4.5-3.8,5.6-5.5C88.8,117.5,90.5,112.6,90.5,107.5z M108.2,174.9l-2.6-45h-2.1l2.5,43H99l2.5-43h-2.1l-2.6,45H108.2z
	 M109.6,100c0-2-0.2-4.3-1.3-6.7c-1-2.2-1.9-3.1-2.7-3.9c-1.9-2-3.4-2.5-3.4-2.5h-5.5l0,41.1H107c0,0,1.3-13.6,1.5-16.7
	C108.7,108.3,109.6,101.5,109.6,100z M74.1,90.6l0,1.1c-1.9,0.1-4.8,2-6.7,4.5c-2.8,3.5-3.3,8.3-3.3,11.3c0,3,0.6,5.8,1.2,7.2
	c1,2.3,2.1,4.2,3.9,5.7c1.9,1.7,2.6,2.2,4.9,2.8v1.2c0.2,0,7,0.9,10.9-4.9c1.4-2.1,3.4-6.2,3.4-12.1c0-2.7-0.5-7.4-2.9-11.4
	C81.6,90.1,75,90.6,74.1,90.6z M104.6,91.6c-1.1-1.2-4.3-1.9-4.3-1.9v36.2h4.7c0.9-9.2,0.9-9.1,1.3-14.4c0.2-2.7,1-8.7,1.1-10
	c0.1-1,0-3.1-0.2-4.4C106.9,95.3,105.9,93,104.6,91.6z M48.4,129.9l2.5,43h-7.1l2.5-43h-2.1l-2.6,45h11.5l-2.6-45H48.4z M46.3,87.9
	h-2.1v20.1h2.1V87.9z M50,87.9h-2.1v20.1H50V87.9z M53.4,87.9h-2.1v20.1h2.1V87.9z M55.5,121.3h-2.1v4.4H42.5V87.9h-3.7v41.1h16.7
	V121.3z"/>
</svg>
